HIERARCHY
ROOT joint_0
{
	OFFSET 0.000000 0.000000 0.000000
	CHANNELS 6 Xposition Yposition Zposition Zrotation Yrotation Xrotation 
	JOINT joint_1
	{
		OFFSET 10.084412 4.114712 95.061035
		CHANNELS 3 Zrotation Yrotation Xrotation
		JOINT joint_2
		{
			OFFSET -1.615463 4.243484 87.329956
			CHANNELS 3 Zrotation Yrotation Xrotation
			JOINT joint_3
			{
				OFFSET -3.579636 4.638191 87.154053
				CHANNELS 3 Zrotation Yrotation Xrotation
				JOINT joint_4
				{
					OFFSET 5.443451 7.217075 123.562988
					CHANNELS 3 Zrotation Yrotation Xrotation
					JOINT joint_5
					{
						OFFSET 21.688065 15.141808 90.458008
						CHANNELS 3 Zrotation Yrotation Xrotation
						End Site
						{
							OFFSET 0.000000 0.000000 0.000000
						}
					}
				}
				JOINT joint_6
				{
					OFFSET 3.611374 -22.863556 70.791992
					CHANNELS 3 Zrotation Yrotation Xrotation
					JOINT joint_7
					{
						OFFSET 3.493607 -153.029137 -12.665039
						CHANNELS 3 Zrotation Yrotation Xrotation
						JOINT joint_8
						{
							OFFSET -14.929443 -32.628616 -254.032959
							CHANNELS 3 Zrotation Yrotation Xrotation
							JOINT joint_9
							{
								OFFSET 11.589401 -3.548126 -242.255005
								CHANNELS 3 Zrotation Yrotation Xrotation
								End Site
								{
									OFFSET 0.000000 0.000000 0.000000
								}
							}
						}
					}
				}
				JOINT joint_10
				{
					OFFSET 2.651962 30.943008 67.690918
					CHANNELS 3 Zrotation Yrotation Xrotation
					JOINT joint_11
					{
						OFFSET -6.172562 150.392159 -30.576904
						CHANNELS 3 Zrotation Yrotation Xrotation
						JOINT joint_12
						{
							OFFSET 15.363358 20.741959 -255.254028
							CHANNELS 3 Zrotation Yrotation Xrotation
							JOINT joint_13
							{
								OFFSET 23.282578 -11.086121 -241.182983
								CHANNELS 3 Zrotation Yrotation Xrotation
								End Site
								{
									OFFSET 0.000000 0.000000 0.000000
								}
							}
						}
					}
				}
			}
		}
	}
	JOINT joint_14
	{
		OFFSET -7.080551 -92.910816 -106.291992
		CHANNELS 3 Zrotation Yrotation Xrotation
		JOINT joint_15
		{
			OFFSET -38.248322 -6.001282 -411.906006
			CHANNELS 3 Zrotation Yrotation Xrotation
			JOINT joint_16
			{
				OFFSET -11.189407 -11.244659 -448.150986
				CHANNELS 3 Zrotation Yrotation Xrotation
				JOINT joint_17
				{
					OFFSET 169.870491 -24.631378 -80.352999
					CHANNELS 3 Zrotation Yrotation Xrotation
					End Site
					{
						OFFSET 0.000000 0.000000 0.000000
					}
				}
			}
		}
	}
	JOINT joint_18
	{
		OFFSET -2.796600 85.817772 -112.273987
		CHANNELS 3 Zrotation Yrotation Xrotation
		JOINT joint_19
		{
			OFFSET -44.395859 -8.174402 -411.255005
			CHANNELS 3 Zrotation Yrotation Xrotation
			JOINT joint_20
			{
				OFFSET -25.617508 -5.555587 -447.666992
				CHANNELS 3 Zrotation Yrotation Xrotation
				JOINT joint_21
				{
					OFFSET 163.870811 53.215703 -78.867000
					CHANNELS 3 Zrotation Yrotation Xrotation
					End Site
					{
						OFFSET 0.000000 0.000000 0.000000
					}
				}
			}
		}
	}
}
MOTION
Frames: 7
Frame Time: 0.016667
1385.906250 -52.938770 1063.756958 0.907588 -0.343125 2.275787 -0.455610 -3.058586 0.224160 -0.669532 0.546920 -0.092320 -0.600617 -0.663851 0.067208 -2.268031 5.842183 5.421068 0.000000 0.000000 0.000000 -3.125962 0.370801 0.744779 0.582572 -0.003153 -1.975995 -0.031568 3.705656 0.343824 0.000000 0.000000 0.000000 2.336600 1.229628 -0.624999 0.079935 0.727735 -1.614675 0.231470 -0.277968 2.291615 0.000000 0.000000 0.000000 -0.432588 -1.330207 -3.340223 -0.757607 0.665096 -0.208371 -0.728435 -0.353564 -0.394849 0.000000 0.000000 0.000000 -4.749348 -1.732569 2.117637 -4.533199 -0.247101 -0.328154 -4.432881 0.315555 -2.235245 0.000000 0.000000 0.000000 
1385.835449 -52.892380 1063.755981 0.910425 -0.324667 2.276657 -0.451919 -3.071614 0.214105 -0.666435 0.549334 -0.088845 -0.597483 -0.666660 0.065311 -2.269779 5.845324 5.425939 0.000000 0.000000 0.000000 -3.138265 0.369326 0.757841 0.585266 -0.006322 -1.981159 -0.032942 3.741335 0.322762 0.000000 0.000000 0.000000 2.327241 1.228740 -0.618818 0.077216 0.728233 -1.607965 0.229663 -0.255146 2.283446 0.000000 0.000000 0.000000 -0.432059 -1.350573 -3.344222 -0.757742 0.656510 -0.208385 -0.728986 -0.345919 -0.393999 0.000000 0.000000 0.000000 -4.748632 -1.757586 2.111515 -4.534716 -0.247843 -0.320212 -4.433853 0.321373 -2.237599 0.000000 0.000000 0.000000 
1385.774292 -52.849495 1063.756958 0.907044 -0.313335 2.276471 -0.446889 -3.083041 0.206294 -0.662006 0.552442 -0.085988 -0.592944 -0.669406 0.063784 -2.271173 5.847398 5.429991 0.000000 0.000000 0.000000 -3.143991 0.372978 0.761986 0.585702 -0.003174 -1.976324 -0.033721 3.761862 0.310657 0.000000 0.000000 0.000000 2.322041 1.229786 -0.615179 0.075799 0.730431 -1.595086 0.227577 -0.240313 2.268516 0.000000 0.000000 0.000000 -0.429805 -1.364098 -3.347438 -0.756047 0.649991 -0.207611 -0.727629 -0.339388 -0.392410 0.000000 0.000000 0.000000 -4.746584 -1.772550 2.109220 -4.533551 -0.249606 -0.318160 -4.432597 0.325531 -2.238336 0.000000 0.000000 0.000000 
1385.719116 -52.807533 1063.760010 0.898481 -0.307620 2.274863 -0.440596 -3.092922 0.201398 -0.656396 0.557058 -0.085110 -0.586959 -0.673441 0.063136 -2.272154 5.848218 5.433043 0.000000 0.000000 0.000000 -3.144532 0.380807 0.760852 0.584518 0.005016 -1.964424 -0.034153 3.773189 0.303790 0.000000 0.000000 0.000000 2.321328 1.232160 -0.612413 0.074882 0.733315 -1.578809 0.225173 -0.228679 2.248708 0.000000 0.000000 0.000000 -0.426055 -1.372029 -3.349527 -0.752720 0.644292 -0.206147 -0.724624 -0.332830 -0.390040 0.000000 0.000000 0.000000 -4.743341 -1.780136 2.109161 -4.530501 -0.251048 -0.318398 -4.429646 0.328678 -2.237931 0.000000 0.000000 0.000000 
1385.657715 -52.766640 1063.761963 0.888513 -0.305414 2.273653 -0.434433 -3.098031 0.195819 -0.650508 0.559845 -0.082787 -0.580975 -0.675496 0.061968 -2.272827 5.848864 5.435072 0.000000 0.000000 0.000000 -3.146202 0.386824 0.759520 0.583285 0.011331 -1.951621 -0.034535 3.782041 0.297378 0.000000 0.000000 0.000000 2.320333 1.233435 -0.612391 0.074469 0.735342 -1.563209 0.223540 -0.220134 2.235589 0.000000 0.000000 0.000000 -0.421974 -1.377922 -3.351454 -0.748941 0.641210 -0.205882 -0.721108 -0.327428 -0.387596 0.000000 0.000000 0.000000 -4.739780 -1.785561 2.108882 -4.527030 -0.249560 -0.319694 -4.426324 0.329891 -2.236718 0.000000 0.000000 0.000000 
1385.576416 -52.722668 1063.760986 0.879174 -0.306538 2.274781 -0.430471 -3.093108 0.190005 -0.646082 0.559408 -0.081604 -0.576703 -0.674499 0.061238 -2.272104 5.846181 5.433987 0.000000 0.000000 0.000000 -3.150565 0.386350 0.762237 0.582784 0.010674 -1.943065 -0.035078 3.790244 0.287546 0.000000 0.000000 0.000000 2.320265 1.231574 -0.616955 0.074665 0.734183 -1.551948 0.223747 -0.216007 2.239807 0.000000 0.000000 0.000000 -0.418200 -1.383183 -3.355400 -0.745602 0.641771 -0.206780 -0.717917 -0.323849 -0.385570 0.000000 0.000000 0.000000 -4.735750 -1.792505 2.105216 -4.523620 -0.241088 -0.320904 -4.422976 0.329020 -2.234814 0.000000 0.000000 0.000000 
1385.481201 -52.677547 1063.756958 0.868506 -0.311906 2.277279 -0.426855 -3.079722 0.183203 -0.641318 0.556322 -0.078500 -0.572574 -0.669708 0.058899 -2.270731 5.840852 5.432175 0.000000 0.000000 0.000000 -3.159186 0.381044 0.767027 0.582655 0.004734 -1.935430 -0.035708 3.797142 0.275579 0.000000 0.000000 0.000000 2.318495 1.226850 -0.624508 0.075511 0.730653 -1.543443 0.225336 -0.216617 2.256364 0.000000 0.000000 0.000000 -0.414020 -1.386286 -3.360403 -0.741865 0.645390 -0.208797 -0.714240 -0.322038 -0.383571 0.000000 0.000000 0.000000 -4.731136 -1.798087 2.099644 -4.519813 -0.227704 -0.322638 -4.419227 0.325476 -2.231848 0.000000 0.000000 0.000000 
